<?xml version="1.0" encoding="UTF-8" standalone="no"?>
<!-- Created with Inkscape (http://www.inkscape.org/) -->

<svg
   xmlns:dc="http://purl.org/dc/elements/1.1/"
   xmlns:cc="http://creativecommons.org/ns#"
   xmlns:rdf="http://www.w3.org/1999/02/22-rdf-syntax-ns#"
   xmlns:svg="http://www.w3.org/2000/svg"
   xmlns="http://www.w3.org/2000/svg"
   xmlns:sodipodi="http://sodipodi.sourceforge.net/DTD/sodipodi-0.dtd"
   xmlns:inkscape="http://www.inkscape.org/namespaces/inkscape"
   id="svg17624"
   version="1.1"
   inkscape:version="0.92.4 (5da689c313, 2019-01-14)"
   width="64"
   height="64"
   xml:space="preserve"
   sodipodi:docname="flooding.svg"
   viewBox="0 0 64 64"><metadata
     id="metadata17630"><rdf:RDF><cc:Work
         rdf:about=""><dc:format>image/svg+xml</dc:format><dc:type
           rdf:resource="http://purl.org/dc/dcmitype/StillImage" /><dc:title></dc:title></cc:Work></rdf:RDF></metadata><defs
     id="defs17628"><inkscape:perspective
       sodipodi:type="inkscape:persp3d"
       inkscape:vp_x="0 : 0.5 : 1"
       inkscape:vp_y="0 : 1000 : 0"
       inkscape:vp_z="1 : 0.5 : 1"
       inkscape:persp3d-origin="0.5 : 0.33333332 : 1"
       id="perspective17632" /><clipPath
       clipPathUnits="userSpaceOnUse"
       id="clipPath17642"><path
         d="M -2,710 H 499 V -1 H -2 Z"
         id="path17644"
         inkscape:connector-curvature="0" /></clipPath><clipPath
       clipPathUnits="userSpaceOnUse"
       id="clipPath17648"><path
         d="M 0,708.06 H 498 V 0.06 H 0 Z"
         id="path17650"
         inkscape:connector-curvature="0" /></clipPath><clipPath
       clipPathUnits="userSpaceOnUse"
       id="clipPath17798"><path
         d="M -2,710 H 499 V -1 H -2 Z"
         id="path17800"
         inkscape:connector-curvature="0" /></clipPath><clipPath
       clipPathUnits="userSpaceOnUse"
       id="clipPath17804"><path
         d="M 0,708.06 H 498 V 0.06 H 0 Z"
         id="path17806"
         inkscape:connector-curvature="0" /></clipPath><clipPath
       id="Clip0"><path
         inkscape:connector-curvature="0"
         d="M 0,0 H 212.597 V 269.292 H 0 Z"
         transform="translate(0.923828,0.879883)"
         id="path7" /></clipPath><clipPath
       id="Clip0-8"><path
         inkscape:connector-curvature="0"
         d="M 0,0 H 170.079 V 113.386 H 0 Z"
         transform="translate(0.0986328,0.822266)"
         id="path7-8" /></clipPath><clipPath
       id="Clip0-1"><path
         inkscape:connector-curvature="0"
         d="M 0,0 H 287.009 V 159.449 H 0 Z"
         transform="translate(0.396484,0.267578)"
         id="path7-7" /></clipPath><clipPath
       id="Clip0-17"><path
         inkscape:connector-curvature="0"
         d="M 0,0 H 340.157 V 170.079 H 0 Z"
         transform="translate(0.289063,0.774414)"
         id="path7-4" /></clipPath><clipPath
       id="Clip0-174"><path
         inkscape:connector-curvature="0"
         d="M 0,0 H 269.291 V 85.039 H 0 Z"
         transform="translate(0.899414,0.480469)"
         id="path7-0" /></clipPath></defs><sodipodi:namedview
     pagecolor="#ffffff"
     bordercolor="#666666"
     borderopacity="1"
     objecttolerance="10"
     gridtolerance="10"
     guidetolerance="10"
     inkscape:pageopacity="0"
     inkscape:pageshadow="2"
     inkscape:window-width="3840"
     inkscape:window-height="2066"
     id="namedview17626"
     showgrid="false"
     inkscape:zoom="17.727627"
     inkscape:cx="21.507902"
     inkscape:cy="38.769096"
     inkscape:window-x="3829"
     inkscape:window-y="-11"
     inkscape:window-maximized="1"
     inkscape:current-layer="g17634"
     fit-margin-top="0"
     fit-margin-left="0"
     fit-margin-right="0"
     fit-margin-bottom="0"
     showguides="true"
     inkscape:guide-bbox="true"
     inkscape:pagecheckerboard="true"
     inkscape:snap-bbox="true"
     inkscape:bbox-paths="true"
     inkscape:bbox-nodes="true"
     inkscape:snap-bbox-edge-midpoints="true"
     inkscape:snap-grids="false"
     inkscape:snap-page="true"
     scale-x="1" /><g
     id="g17634"
     inkscape:groupmode="layer"
     inkscape:label="GG1999P002"
     transform="matrix(1.25,0,0,-1.25,570.69351,-847.4325)"><path
       inkscape:connector-curvature="0"
       style="fill:#ef7c23;fill-rule:nonzero;stroke:none;stroke-width:0.14035292"
       d="m -411.15624,-696.25548 c 0.82596,-0.78428 0.82582,-2.05576 0,-2.84006 l -18.66093,-17.7214 c -0.82581,-0.78415 -2.16464,-0.78415 -2.9906,0 l -18.66016,17.7214 c -0.82573,0.7843 -0.82573,2.05578 1.3e-4,2.84006 l 18.6609,17.72124 c 0.82596,0.78432 2.16463,0.78432 2.99059,0 z"
       id="path11" /><path
       inkscape:connector-curvature="0"
       style="fill:#000000;fill-rule:nonzero;stroke:none;stroke-width:0.14035292"
       d="m -451.14431,-698.71881 c -0.58986,0.56011 -0.58986,1.46846 0,2.02869 l 18.76396,17.81993 c 0.58991,0.56021 1.54621,0.56021 2.13626,0 l 18.76421,-17.81993 c 0.59005,-0.56023 0.59005,-1.46858 0,-2.02869 l -18.76378,-17.8199 c -0.59004,-0.56024 -1.54635,-0.56024 -2.13625,0 z"
       id="path13" /><path
       inkscape:connector-curvature="0"
       style="fill:#ef7c23;fill-rule:nonzero;stroke:none;stroke-width:0.14035292"
       d="m -450.5958,-698.17579 c -0.28705,0.27244 -0.28705,0.71424 0,0.98685 l 18.76404,17.81986 c 0.2869,0.27261 0.75209,0.27261 1.03912,0 l 18.76434,-17.81986 c 0.28703,-0.27261 0.28703,-0.71441 1.2e-4,-0.98685 l -18.76406,-17.82005 c -0.28703,-0.27259 -0.75222,-0.27259 -1.03911,0 z"
       id="path15" /><path
       inkscape:connector-curvature="0"
       style="fill:#000000;fill-rule:nonzero;stroke:none;stroke-width:0.14035292"
       d="m -434.88433,-708.76092 c 0,1.87375 1.59936,3.39266 3.5723,3.39266 1.97279,0 3.57214,-1.51891 3.57214,-3.39266 0,-1.87357 -1.59935,-3.39251 -3.57214,-3.39251 -1.97294,0 -3.5723,1.51894 -3.5723,3.39251 z"
       id="path17" /><path
       inkscape:connector-curvature="0"
       style="fill:#000000;fill-rule:nonzero;stroke:none;stroke-width:0.14035292"
       d="m -431.31203,-683.53976 c 2.5365,0 4.59282,-1.9563 4.59282,-4.36181 0,-2.4039 -3.81712,-15.9934 -3.81712,-15.9934 h -1.55155 c 0,0 -3.81713,13.5895 -3.81713,15.9934 0,2.40551 2.05633,4.36181 4.59298,4.36181 z"
       id="path19" /><path
       inkscape:connector-curvature="0"
       style="fill:#ef7c23;fill-rule:nonzero;stroke:none;stroke-width:0.14035292"
       d="m -450.70438,-719.45305 c 0,1.07059 0.91391,1.93854 2.0412,1.93854 h 34.70128 c 1.1274,0 2.04107,-0.86795 2.04107,-1.93854 v -7.75442 c 0,-1.07058 -0.91367,-1.93853 -2.04107,-1.93853 h -34.70128 c -1.12729,0 -2.0412,0.86795 -2.0412,1.93853 z"
       id="path11-1" /><path
       inkscape:connector-curvature="0"
       style="fill:#000000;fill-rule:nonzero;stroke:none;stroke-width:0.14035292"
       d="m -450.29608,-719.45306 c 0,0.85648 0.73107,1.55092 1.63289,1.55092 h 34.70128 c 0.90173,0 1.63292,-0.69444 1.63292,-1.55092 v -7.75442 c 0,-0.85645 -0.73119,-1.55089 -1.63292,-1.55089 h -34.70128 c -0.90182,0 -1.63289,0.69444 -1.63289,1.55089 z"
       id="path13-7" /><path
       inkscape:connector-curvature="0"
       style="fill:#ef7c23;fill-rule:nonzero;stroke:none;stroke-width:0.14035292"
       d="m -449.68372,-719.45305 c 0,0.53523 0.45697,0.96921 1.02066,0.96921 h 34.70115 c 0.5637,0 1.02053,-0.43398 1.02053,-0.96921 v -7.75442 c 0,-0.53534 -0.45683,-0.9692 -1.02053,-0.9692 h -34.70115 c -0.56369,0 -1.02066,0.43386 -1.02066,0.9692 z"
       id="path15-4" /><g
       transform="matrix(0.14402095,0,0,-0.13677831,-450.83391,-717.4488)"
       id="Background"
       style="fill:#000000"><g
         id="Group1"
         clip-path="url(#Clip0-174)"
         style="fill:#000000"><path
           inkscape:connector-curvature="0"
           style="fill:#000000;fill-rule:nonzero;stroke:none"
           d="M 0,0 V 35.4336 H 4.9258 V 18.3193 h 7.2637 V 13.2529 H 4.9258 V 4.8897 h 12.791 V 0 Z"
           transform="translate(41.4277,25.2705)"
           id="path17-0" /><path
           inkscape:connector-curvature="0"
           style="fill:#000000;fill-rule:nonzero;stroke:none"
           d="M 0,0 V 35.4336 H 17.7158 V 30.7568 H 5.0312 V 0 Z"
           transform="translate(65.2393,25.2705)"
           id="path19-9" /><path
           inkscape:connector-curvature="0"
           style="fill:#000000;fill-rule:evenodd;stroke:none"
           d="m 10.3467,36.8145 c 3.4482,0 6.0472,-1.6534 7.7952,-4.96 1.63,-3.1416 2.445,-7.6299 2.445,-13.4649 C 20.5869,6.1299 17.1959,0 10.417,0 3.4727,0 0,6.1299 0,18.3896 0,30.6729 3.4483,36.8145 10.3467,36.8145 Z m 0,-5.1026 c -2.0088,0 -3.4375,-1.2871 -4.2881,-3.8613 -0.6846,-2.1026 -1.0273,-5.2559 -1.0273,-9.461 0,-8.9765 1.7715,-13.4648 5.3154,-13.4648 3.5192,0 5.2792,4.4883 5.2792,13.4648 0,8.8819 -1.76,13.3223 -5.2792,13.3223 z"
           transform="translate(89.1201,24.5625)"
           id="path21" /><path
           inkscape:connector-curvature="0"
           style="fill:#000000;fill-rule:evenodd;stroke:none"
           d="m 10.346,36.8145 c 3.449,0 6.048,-1.6534 7.796,-4.96 1.63,-3.1416 2.444,-7.6299 2.444,-13.4649 C 20.586,6.1299 17.197,0 10.417,0 3.472,0 0,6.1299 0,18.3896 0,30.6729 3.449,36.8145 10.346,36.8145 Z m 0,-5.1026 c -2.008,0 -3.436,-1.2871 -4.287,-3.8613 -0.685,-2.1026 -1.027,-5.2559 -1.027,-9.461 0,-8.9765 1.771,-13.4648 5.314,-13.4648 3.52,0 5.28,4.4883 5.28,13.4648 0,8.8819 -1.76,13.3223 -5.28,13.3223 z"
           transform="translate(115.73,24.5625)"
           id="path23" /><path
           inkscape:connector-curvature="0"
           style="fill:#000000;fill-rule:evenodd;stroke:none"
           d="M 8.043,0 H 0 v 35.4336 h 8.043 c 4.489,0 7.607,-1.7598 9.355,-5.2793 1.393,-2.7881 2.09,-7.2519 2.09,-13.3945 C 19.488,11.54 18.732,7.583 17.22,4.8897 15.378,1.6299 12.319,0 8.043,0 Z M 7.866,4.8897 c 2.716,0 4.559,1.2177 5.528,3.6503 0.661,1.6768 0.992,4.4522 0.992,8.3272 v 2.0186 c 0,3.6386 -0.296,6.2607 -0.886,7.8662 -0.898,2.457 -2.622,3.6855 -5.174,3.6855 H 4.925 V 4.8897 Z"
           transform="translate(143.863,25.2705)"
           id="path25" /><path
           inkscape:connector-curvature="0"
           style="fill:#000000;fill-rule:nonzero;stroke:none"
           d="M 0,35.4336 H 4.961 V 0 H 0 Z"
           transform="translate(170.721,25.2705)"
           id="path27" /><path
           inkscape:connector-curvature="0"
           style="fill:#000000;fill-rule:nonzero;stroke:none"
           d="M 0,0 V 35.4336 H 4.889 V 12.1543 l 10.56,23.2793 h 4.039 V 0 H 14.35 V 20.4805 L 4.889,0 Z"
           transform="translate(183.193,25.2705)"
           id="path29" /><path
           inkscape:connector-curvature="0"
           style="fill:#000000;fill-rule:nonzero;stroke:none"
           d="m 14.351,9.1768 h 5.138 C 19.489,6.626 18.556,4.4639 16.69,2.6934 14.847,0.8975 12.65,0 10.099,0 6.059,0 3.237,2.1963 1.63,6.5898 0.543,9.5195 0,13.6299 0,18.9209 c 0,4.7246 0.568,8.5518 1.702,11.4805 1.676,4.2754 4.476,6.4131 8.397,6.4131 1.961,0 3.721,-0.4844 5.279,-1.4522 1.418,-0.874 2.446,-1.9844 3.083,-3.331 0.638,-1.3702 0.956,-3.4014 0.956,-6.0948 v -7.0156 h -9.07 v 5.1025 h 4.252 v 4.0039 c 0,0.9922 -0.496,1.8897 -1.488,2.6924 -0.969,0.8037 -1.973,1.2051 -3.012,1.2051 -3.354,0 -5.031,-4.0391 -5.031,-12.1182 v -2.1259 c 0,-8.4092 1.677,-12.6143 5.031,-12.6143 1.299,0 2.327,0.3662 3.083,1.0986 0.779,0.709 1.169,1.7129 1.169,3.0118 z"
           transform="translate(210.192,24.5625)"
           id="path31" /></g></g></g></svg>