<?xml version="1.0" encoding="UTF-8" standalone="no"?>
<!-- Generator: Adobe Illustrator 13.0.1, SVG Export Plug-In . SVG Version: 6.00 Build 14948)  -->

<svg
   xmlns:dc="http://purl.org/dc/elements/1.1/"
   xmlns:cc="http://creativecommons.org/ns#"
   xmlns:rdf="http://www.w3.org/1999/02/22-rdf-syntax-ns#"
   xmlns:svg="http://www.w3.org/2000/svg"
   xmlns="http://www.w3.org/2000/svg"
   xmlns:sodipodi="http://sodipodi.sourceforge.net/DTD/sodipodi-0.dtd"
   xmlns:inkscape="http://www.inkscape.org/namespaces/inkscape"
   version="1.1"
   id="Layer_1"
   x="0px"
   y="0px"
   width="64"
   height="64"
   viewBox="0 0 63.999998 64.000001"
   enable-background="new 0 0 300 250"
   xml:space="preserve"
   inkscape:version="0.92.4 (5da689c313, 2019-01-14)"
   sodipodi:docname="nz_pw53_temporary.svg"><metadata
     id="metadata94"><rdf:RDF><cc:Work
         rdf:about=""><dc:format>image/svg+xml</dc:format><dc:type
           rdf:resource="http://purl.org/dc/dcmitype/StillImage" /><dc:title></dc:title></cc:Work></rdf:RDF></metadata><defs
     id="defs92" /><sodipodi:namedview
     pagecolor="#ffffff"
     bordercolor="#666666"
     borderopacity="1"
     objecttolerance="10"
     gridtolerance="10"
     guidetolerance="10"
     inkscape:pageopacity="0"
     inkscape:pageshadow="2"
     inkscape:window-width="3840"
     inkscape:window-height="2066"
     id="namedview90"
     showgrid="false"
     fit-margin-top="0"
     fit-margin-left="0"
     fit-margin-right="0"
     fit-margin-bottom="0"
     inkscape:zoom="17.727627"
     inkscape:cx="32"
     inkscape:cy="32"
     inkscape:window-x="3829"
     inkscape:window-y="-11"
     inkscape:window-maximized="1"
     inkscape:current-layer="Layer_1"
     inkscape:pagecheckerboard="true"
     inkscape:snap-page="true"
     inkscape:snap-grids="false"
     inkscape:snap-bbox="true"
     inkscape:bbox-paths="true"
     inkscape:bbox-nodes="true"
     inkscape:snap-bbox-edge-midpoints="true"
     inkscape:snap-bbox-midpoints="true" /><path
     inkscape:connector-curvature="0"
     style="fill:#ef7c23;fill-opacity:1;fill-rule:nonzero;stroke:none;stroke-width:0.17747208"
     d="m 63.04602,29.697012 c 1.272003,1.271839 1.272003,3.334112 -1.77e-4,4.606172 L 34.302426,63.046121 c -1.272002,1.271839 -3.334178,1.271839 -4.60618,0 L 0.9540643,34.303184 c -1.27208573,-1.27206 -1.27208573,-3.334333 0,-4.606172 L 29.697577,0.95394563 c 1.27178,-1.27192751 3.334178,-1.27192751 4.60618,0 z"
     id="path11" /><path
     inkscape:connector-curvature="0"
     style="fill:#000000;fill-rule:nonzero;stroke:none;stroke-width:0.17747208"
     d="M 1.452542,33.692162 C 0.54375525,32.783485 0.54375525,31.31021 1.4523237,30.401755 L 30.354379,1.4990264 c 0.908636,-0.90861235 2.381841,-0.90861235 3.290477,0 L 62.547505,30.401755 c 0.908637,0.908455 0.908637,2.38173 0,3.290407 L 33.645521,62.594827 c -0.908636,0.908678 -2.381619,0.908678 -3.290477,0 z"
     id="path13" /><path
     inkscape:connector-curvature="0"
     style="fill:#ef7c23;fill-opacity:1;fill-rule:nonzero;stroke:none;stroke-width:0.17747208"
     d="m 2.2971961,32.811437 c -0.4419286,-0.441915 -0.4419286,-1.158697 0,-1.600835 L 31.199371,2.30797 c 0.442117,-0.4419476 1.158642,-0.4419476 1.600538,0 L 61.70256,31.210602 c 0.442116,0.442138 0.442116,1.15892 0,1.600835 L 32.800575,61.714102 c -0.441895,0.441916 -1.158643,0.441916 -1.600538,0 z"
     id="path15" /><path
     inkscape:connector-curvature="0"
     style="fill:#000000;fill-rule:nonzero;stroke:none;stroke-width:0.17747208"
     d="m 26.497746,49.97965 c 0,-3.039057 2.463477,-5.502427 5.502173,-5.502427 3.038694,0 5.50217,2.46337 5.50217,5.502427 0,3.039059 -2.463476,5.502429 -5.50217,5.502429 -3.038696,0 -5.502173,-2.46337 -5.502173,-5.502429 z"
     id="path17" /><path
     inkscape:connector-curvature="0"
     style="fill:#000000;fill-rule:nonzero;stroke:none;stroke-width:0.17747208"
     d="m 31.999919,9.0727431 c 3.906956,0 7.074536,3.1729849 7.074536,7.0745779 0,3.898974 -5.879513,25.940209 -5.879513,25.940209 h -1.195023 -1.194803 c 0,0 -5.879514,-22.041235 -5.879514,-25.940209 0,-3.901593 3.167359,-7.0745779 7.074317,-7.0745779 z"
     id="path19" /></svg>