<?xml version="1.0" encoding="UTF-8" standalone="no"?>
<!-- Created with Inkscape (http://www.inkscape.org/) -->

<svg
   xmlns:dc="http://purl.org/dc/elements/1.1/"
   xmlns:cc="http://creativecommons.org/ns#"
   xmlns:rdf="http://www.w3.org/1999/02/22-rdf-syntax-ns#"
   xmlns:svg="http://www.w3.org/2000/svg"
   xmlns="http://www.w3.org/2000/svg"
   xmlns:sodipodi="http://sodipodi.sourceforge.net/DTD/sodipodi-0.dtd"
   xmlns:inkscape="http://www.inkscape.org/namespaces/inkscape"
   id="svg17624"
   version="1.1"
   inkscape:version="0.92.4 (5da689c313, 2019-01-14)"
   width="64"
   height="64"
   xml:space="preserve"
   sodipodi:docname="nz_r3_6_road_closed.svg"
   viewBox="0 0 64 64"><metadata
     id="metadata17630"><rdf:RDF><cc:Work
         rdf:about=""><dc:format>image/svg+xml</dc:format><dc:type
           rdf:resource="http://purl.org/dc/dcmitype/StillImage" /><dc:title></dc:title></cc:Work></rdf:RDF></metadata><defs
     id="defs17628"><inkscape:perspective
       sodipodi:type="inkscape:persp3d"
       inkscape:vp_x="0 : 0.5 : 1"
       inkscape:vp_y="0 : 1000 : 0"
       inkscape:vp_z="1 : 0.5 : 1"
       inkscape:persp3d-origin="0.5 : 0.33333334 : 1"
       id="perspective17632" /><clipPath
       clipPathUnits="userSpaceOnUse"
       id="clipPath17642"><path
         d="M -2,710 H 499 V -1 H -2 Z"
         id="path17644"
         inkscape:connector-curvature="0" /></clipPath><clipPath
       clipPathUnits="userSpaceOnUse"
       id="clipPath17648"><path
         d="M 0,708.06 H 498 V 0.06 H 0 Z"
         id="path17650"
         inkscape:connector-curvature="0" /></clipPath><clipPath
       clipPathUnits="userSpaceOnUse"
       id="clipPath17798"><path
         d="M -2,710 H 499 V -1 H -2 Z"
         id="path17800"
         inkscape:connector-curvature="0" /></clipPath><clipPath
       clipPathUnits="userSpaceOnUse"
       id="clipPath17804"><path
         d="M 0,708.06 H 498 V 0.06 H 0 Z"
         id="path17806"
         inkscape:connector-curvature="0" /></clipPath><clipPath
       id="Clip0"><path
         inkscape:connector-curvature="0"
         d="M 0,0 H 212.597 V 269.292 H 0 Z"
         transform="translate(0.923828,0.879883)"
         id="path7" /></clipPath></defs><sodipodi:namedview
     pagecolor="#ffffff"
     bordercolor="#666666"
     borderopacity="1"
     objecttolerance="10"
     gridtolerance="10"
     guidetolerance="10"
     inkscape:pageopacity="0"
     inkscape:pageshadow="2"
     inkscape:window-width="3840"
     inkscape:window-height="2066"
     id="namedview17626"
     showgrid="false"
     inkscape:zoom="9.215"
     inkscape:cx="100.00001"
     inkscape:cy="73.955507"
     inkscape:window-x="3829"
     inkscape:window-y="-11"
     inkscape:window-maximized="1"
     inkscape:current-layer="g17634"
     fit-margin-top="0.1"
     fit-margin-left="0.1"
     fit-margin-right="0.1"
     fit-margin-bottom="0.1"
     showguides="true"
     inkscape:guide-bbox="true"
     inkscape:pagecheckerboard="true"
     inkscape:snap-page="true"
     inkscape:snap-grids="false"
     inkscape:snap-bbox="true"
     inkscape:bbox-paths="true"
     inkscape:bbox-nodes="true"
     inkscape:snap-bbox-edge-midpoints="true"><inkscape:grid
       type="xygrid"
       id="grid835" /></sodipodi:namedview><g
     id="g17634"
     inkscape:groupmode="layer"
     inkscape:label="GG1999P002"
     transform="matrix(1.25,0,0,-1.25,160.59063,33.584685)"><path
       sodipodi:nodetypes="sssss"
       inkscape:connector-curvature="0"
       id="path3787"
       d="m -128.4725,1.267719 c 0,14.138369 11.46139,25.600029 25.6,25.600029 14.138692,0 25.599992,-11.461629 25.599992,-25.600002 0,-14.138667 -11.4613,-25.599998 -25.599992,-25.599998 -14.13861,0 -25.6,11.461299 -25.6,25.599967 z"
       style="fill:#c0111e;fill-opacity:1;fill-rule:nonzero;stroke:none;stroke-width:0.32000002" /><path
       style="fill:#ffffff;fill-opacity:1;fill-rule:nonzero;stroke:none;stroke-width:0.32123297"
       d="m -123.55984,1.347392 c 0,11.343484 9.20928,20.539392 20.56973,20.539392 11.360499,0 20.569706,-9.195883 20.569706,-20.53937 0,-11.343723 -9.209207,-20.539367 -20.569706,-20.539367 -11.36045,0 -20.56973,9.195617 -20.56973,20.539343 z"
       id="path3919"
       inkscape:connector-curvature="0"
       sodipodi:nodetypes="sssss" /><path
       id="path3932"
       d="m -111.99524,11.045866 h -0.79402 v 2.727421 h 0.79402 c 0.25189,0 0.46185,-0.164522 0.62985,-0.493298 0.14176,-0.283635 0.21291,-0.593238 0.21291,-0.928504 0,-0.283939 -0.0806,-0.567302 -0.24212,-0.850939 -0.18072,-0.30314 -0.38093,-0.45468 -0.60064,-0.45468 z m 1.1044,-0.802901 c 0.61332,0.45142 0.92012,1.131676 0.92012,2.040705 0,0.973614 -0.22295,1.685995 -0.66853,2.137414 -0.34843,0.361204 -0.80702,0.541668 -1.37517,0.541668 h -1.94685 V 5.291445 h 1.17201 v 4.526036 h 0.71668 l 0.96854,-4.526036 h 1.20096 z"
       style="fill:#000000;fill-rule:evenodd;stroke:none;stroke-width:0.32123297"
       inkscape:connector-curvature="0" /><path
       id="path3934"
       d="m -106.26125,6.335832 c -0.4001,0 -0.68124,0.367694 -0.84246,1.102477 -0.11636,0.561113 -0.17453,1.440946 -0.17453,2.640435 0,1.250758 0.0517,2.147137 0.15503,2.688503 0.14852,0.793147 0.43585,1.189736 0.86196,1.189736 0.40041,0 0.67179,-0.396589 0.81382,-1.189736 0.0901,-0.534875 0.13556,-1.431254 0.13556,-2.688503 0,-1.295896 -0.0423,-2.176061 -0.12609,-2.640435 -0.12906,-0.734783 -0.40339,-1.102477 -0.82329,-1.102477 z m 0,-1.237805 c 0.80084,-0.0064 1.35275,0.315791 1.65631,0.967121 0.32953,0.70912 0.49402,2.046894 0.49402,4.013596 0,1.676242 -0.10661,2.862447 -0.31952,3.558915 -0.31655,1.018722 -0.92691,1.525004 -1.83081,1.518511 -0.96205,-0.0064 -1.59811,-0.515701 -1.90787,-1.527961 -0.20024,-0.664313 -0.30032,-1.847257 -0.30032,-3.549465 0,-1.631465 0.12283,-2.804686 0.36793,-3.520298 0.32926,-0.967422 0.94286,-1.453927 1.84026,-1.460419 z"
       style="fill:#000000;fill-rule:evenodd;stroke:none;stroke-width:0.32123297"
       inkscape:connector-curvature="0" /><path
       id="path3936"
       d="m -102.6389,5.291445 h 1.23994 l 0.45504,2.437294 h 1.666016 l 0.54248,-2.437294 h 1.239716 l -2.043809,9.671307 h -1.210693 z m 1.97611,3.636451 0.5519,2.833581 0.639295,-2.833581 z"
       style="fill:#000000;fill-rule:evenodd;stroke:none;stroke-width:0.32123297"
       inkscape:connector-curvature="0" /><path
       id="path3938"
       d="m -94.251479,13.763566 c 0.703939,0 1.055906,-1.125185 1.055906,-3.375522 0,-1.141095 -0.04506,-1.985874 -0.135466,-2.5337 -0.148467,-0.941489 -0.442682,-1.412081 -0.881433,-1.412081 h -0.687611 v 7.321302 z m -0.106137,1.199186 h -1.714492 V 5.291445 h 1.917692 c 0.335943,0 0.677931,0.125604 1.026576,0.377114 0.296935,0.219083 0.520091,0.467363 0.668262,0.744809 0.116413,0.219082 0.216501,0.686445 0.30026,1.402056 0.09676,0.786656 0.145447,1.644417 0.145447,2.57262 0,0.909031 -0.05141,1.696019 -0.154822,2.36003 -0.09041,0.605919 -0.20985,1.009 -0.358619,1.208909 -0.497115,0.670502 -1.107315,1.005769 -1.830304,1.005769 z"
       style="fill:#000000;fill-rule:evenodd;stroke:none;stroke-width:0.32123297"
       inkscape:connector-curvature="0" /><path
       id="path3940"
       d="m -115.74614,-7.358986 c 0,-0.309484 -0.0774,-0.589984 -0.23242,-0.841496 -0.15472,-0.251513 -0.34224,-0.377118 -0.56164,-0.377118 -0.6458,0 -0.96886,1.128335 -0.96886,3.385006 v 0.512385 c 0,0.07096 -0.003,0.225849 -0.009,0.464378 -0.006,0.244871 -0.009,0.444752 -0.009,0.599645 0,1.760076 0.32629,2.64022 0.97832,2.64022 0.34874,0 0.58115,-0.225548 0.69747,-0.677001 h 1.162 c 0,0.522198 -0.19991,0.973622 -0.60035,1.354001 -0.3809,0.354715 -0.80703,0.531923 -1.27862,0.531923 -0.89091,0.0066 -1.49803,-0.441704 -1.82079,-1.344251 -0.20668,-0.580291 -0.30977,-1.47665 -0.30977,-2.68877 v -0.860821 c 0,-1.599053 0.10632,-2.759394 0.31953,-3.481624 0.32923,-1.09603 0.95233,-1.644042 1.8692,-1.644042 1.24615,0 1.86951,0.808886 1.86951,2.427565 h -1.10438 z"
       style="fill:#000000;fill-rule:nonzero;stroke:none;stroke-width:0.32123297"
       inkscape:connector-curvature="0" /><path
       id="path3942"
       d="m -113.21814,0.06873 v -9.671406 h 3.6903 v 1.179665 h -2.46983 V 0.06873 Z"
       style="fill:#000000;fill-rule:nonzero;stroke:none;stroke-width:0.32123297"
       inkscape:connector-curvature="0" /><path
       id="path3944"
       d="m -105.88624,-8.558278 c -0.40041,0 -0.68124,0.367456 -0.84277,1.102368 -0.11606,0.561301 -0.17424,1.441141 -0.17424,2.640734 0,1.25062 0.0518,2.146737 0.15503,2.688378 0.14853,0.793187 0.43585,1.189479 0.86198,1.189479 0.40042,0 0.67149,-0.396292 0.81352,-1.189479 0.0904,-0.535179 0.13557,-1.431116 0.13557,-2.688378 0,-1.296212 -0.042,-2.176657 -0.1258,-2.640734 -0.12936,-0.734912 -0.40338,-1.102368 -0.82329,-1.102368 z m 0,-1.237938 c 0.80055,-0.0063 1.35273,0.315824 1.6563,0.967101 0.32926,0.708947 0.49402,2.047127 0.49402,4.013939 0,1.676048 -0.10658,2.862354 -0.31979,3.5588 -0.31626,1.018732 -0.92662,1.524717 -1.83053,1.518227 -0.96206,-0.0062 -1.59812,-0.515708 -1.90819,-1.527949 -0.19994,-0.664018 -0.30003,-1.847366 -0.30003,-3.549078 0,-1.631663 0.12254,-2.805289 0.36794,-3.520877 0.32924,-0.967102 0.94287,-1.453822 1.84028,-1.460163 z"
       style="fill:#000000;fill-rule:evenodd;stroke:none;stroke-width:0.32123297"
       inkscape:connector-curvature="0" /><path
       id="path3946"
       d="m -102.21541,-7.214059 c 0,-0.91547 0.21317,-1.592411 0.63929,-2.030822 0.34874,-0.354776 0.82004,-0.532012 1.41418,-0.532012 0.587623,0 1.081346,0.238531 1.481795,0.71559 0.34858,0.419087 0.52306,0.863839 0.52306,1.334557 0,0.664259 -0.164495,1.383169 -0.493849,2.15673 -0.400417,0.928756 -0.962063,1.705637 -1.685536,2.330947 -0.14823,0.128926 -0.27432,0.345052 -0.37767,0.647862 -0.0969,0.277479 -0.14529,0.541673 -0.14529,0.793186 0,0.554327 0.2389,0.831806 0.7167,0.831806 0.465063,0 0.697464,-0.348254 0.697464,-1.044699 h 1.191413 c 0,0.71592 -0.190797,1.279997 -0.571584,1.692501 -0.348736,0.387143 -0.791091,0.580262 -1.326753,0.580262 -0.49728,0 -0.93313,-0.173945 -1.30787,-0.522198 -0.40662,-0.386841 -0.61009,-0.889564 -0.61009,-1.508473 0,-0.399855 0.10663,-0.854511 0.31952,-1.363664 0.20053,-0.477059 0.41667,-0.838477 0.64907,-1.083347 0.52944,-0.548317 0.81676,-0.854177 0.86194,-0.918791 0.290582,-0.361116 0.529469,-0.812509 0.716983,-1.353882 0.122547,-0.348435 0.183964,-0.680262 0.183964,-0.996088 0,-0.335752 -0.07442,-0.602966 -0.222953,-0.802847 -0.142031,-0.200185 -0.348433,-0.300126 -0.619814,-0.300126 -0.26459,0 -0.47129,0.109905 -0.61982,0.329112 -0.16773,0.244869 -0.25188,0.593003 -0.25188,1.044396 z"
       style="fill:#000000;fill-rule:nonzero;stroke:none;stroke-width:0.32123297"
       inkscape:connector-curvature="0" /><path
       id="path3948"
       d="m -96.432902,0.06873 v -9.671406 h 3.689975 v 1.179665 h -2.479235 v 3.481927 h 1.530054 v 1.189629 h -1.530054 v 2.620685 h 2.353442 v 1.1995 z"
       style="fill:#000000;fill-rule:nonzero;stroke:none;stroke-width:0.32123297"
       inkscape:connector-curvature="0" /><path
       id="path3950"
       d="m -89.51772,-1.13077 c 0.703945,0 1.05592,-1.124894 1.05592,-3.375225 0,-1.141015 -0.04506,-1.985833 -0.13577,-2.533846 -0.148471,-0.941437 -0.442384,-1.412157 -0.881445,-1.412157 h -0.687615 v 7.321228 z m -0.106742,1.1995 h -1.714204 v -9.671406 h 1.917709 c 0.336251,0 0.677942,0.125305 1.026891,0.376817 0.29694,0.219506 0.519795,0.467699 0.668266,0.744877 0.116115,0.218902 0.216504,0.686602 0.300263,1.402191 0.09676,0.786846 0.145143,1.644343 0.145143,2.572796 0,0.909131 -0.05171,1.695704 -0.154515,2.359754 -0.09071,0.606226 -0.210158,1.008978 -0.358625,1.20892 -0.497116,0.670781 -1.107326,1.005749 -1.830928,1.006051 z"
       style="fill:#000000;fill-rule:evenodd;stroke:none;stroke-width:0.32123297"
       inkscape:connector-curvature="0" /></g></svg>