<?xml version="1.0" encoding="utf-8"?>
<svg xmlns="http://www.w3.org/2000/svg" height="48" width="48" viewBox="0 0 48 48">
  <g>
    <ellipse cy="24" cx="24" ry="24" rx="24" fill="#000000" />
    <path id="path1" transform="rotate(0,24,24) translate(14.3843747973442,7) scale(1.0625,1.0625)  " fill="#FFFFFF" d="M6.1999998,24.900009L7.3000064,24.900009 10.800008,30.400009C10.9,30.600006,11.000006,30.800003,11.099997,30.900009L11.099997,29.900009 11.099997,24.900009 11.9,24.900009 11.9,32 10.9,32 7.3000064,26.400009C7.2000002,26.300003,7.0999941,26.100006,7.0999941,26L7.0999941,27 7.0999941,32 6.1999998,32z M8.8000068,2L1.0999913,24.199997 8.8000068,17.400009z M9.0999956,0L18.1,25.800003 9.0999956,17.699997 0,25.699997z" />
  </g>
</svg>

